<svg xmlns="http://www.w3.org/2000/svg" width="64" height="64" viewBox="0 0 64 64">
  <rect width="64" height="64" rx="12" fill="#2f7434" />
  <g opacity="0.12" fill="none" stroke="#85b17e" stroke-width="1.5">
    <path d="M8 8h12v12H8zM26 8h12v12H26zM44 8h12v12H44z" />
    <path d="M8 26h12v12H8zM26 26h12v12H26zM44 26h12v12H44z" />
  </g>
  <path
    fill="#050306"
    d="M23 17c2.2 0 5.6 3.9 9 6.5c3.4-2.6 6.8-6.5 9-6.5c2.2 0 3.2 2.4 3.2 6.2c0 3.8-.5 7.1-1.6 9.9c4 5 6.4 11.4 6.4 18.4c0 3.3-2.7 6-6 6H21c-3.3 0-6-2.7-6-6c0-7 2.4-13.4 6.4-18.4c-1.1-2.8-1.6-6.1-1.6-9.9c0-3.8 1-6.2 3.2-6.2Z"
  />
  <ellipse cx="27.5" cy="33.5" rx="4.8" ry="5.7" fill="#eef18d" />
  <ellipse cx="36.5" cy="33.5" rx="4.8" ry="5.7" fill="#eef18d" />
  <circle cx="27.5" cy="33.5" r="1.7" fill="#050306" />
  <circle cx="36.5" cy="33.5" r="1.7" fill="#050306" />
  <path d="M30.1 40.3h3.8L32 42.6z" fill="#d3a095" />
  <path d="M30.8 43.5c.4.8.9 1.2 1.2 1.2s.8-.4 1.2-1.2" fill="none" stroke="#d3a095" stroke-linecap="round" stroke-width="1.1" />
  <g stroke="#d8e2b6" stroke-linecap="round" stroke-width="1.4" opacity="0.9">
    <path d="M20.4 41.3l-8.3 2.7" />
    <path d="M20.9 43.5l-7.4 6" />
    <path d="M43.6 41.3l8.3 2.7" />
    <path d="M43.1 43.5l7.4 6" />
  </g>
</svg>
